<svg width="24" height="24" viewBox="0 0 24 24" xmlns="http://www.w3.org/2000/svg">
    <g fill="none" fill-rule="evenodd">
        <path d="M11.697 3.675a1.246 1.246 0 0 1 1.375.57l8.467 14.112a1.246 1.246 0 0 1-.428 1.715 1.25 1.25 0 0 1-.643.178H3.532A1.246 1.246 0 0 1 2.282 19c0-.227.062-.449.179-.643l8.467-14.113c.178-.296.458-.492.769-.57z" stroke="#0094DE" stroke-width="1.5" fill="#CCEDFA"/>
        <path d="M11.75 9h.5a.5.5 0 0 1 .5.5v5a.5.5 0 0 1-.5.5h-.5a.5.5 0 0 1-.5-.5v-5a.5.5 0 0 1 .5-.5zm0 7h.5a.5.5 0 0 1 .5.5v.65a.5.5 0 0 1-.5.5h-.5a.5.5 0 0 1-.5-.5v-.65a.5.5 0 0 1 .5-.5z" fill="#0094DE"/>
    </g>
</svg>
