<svg width="24" height="24" viewBox="0 0 24 24" xmlns="http://www.w3.org/2000/svg">
    <defs>
        <linearGradient x1="74.463%" y1="89.145%" x2="18.837%" y2="0%" id="91bdv4whna">
            <stop stop-color="#1289E3" offset="0%"/>
            <stop stop-color="#47A9F4" offset="74.15%"/>
            <stop stop-color="#4BA1E3" offset="100%"/>
        </linearGradient>
    </defs>
    <path d="M17 3a3 3 0 0 1 3 3v13a3 3 0 0 1-3 3H8a3 3 0 0 1-3-3V6a3 3 0 0 1 3-3h9zm-3 7.5H9a1 1 0 0 0 0 2h5a1 1 0 0 0 0-2zM16 7H9a1 1 0 1 0 0 2h7a1 1 0 0 0 0-2z" fill="url(#91bdv4whna)" fill-rule="evenodd"/>
</svg>
