<svg width="24" height="24" viewBox="0 0 24 24" xmlns="http://www.w3.org/2000/svg">
    <defs>
        <linearGradient x1="88.776%" y1="89.145%" x2=".604%" y2="0%" id="awm1raw9ra">
            <stop stop-color="#1289E3" offset="0%"/>
            <stop stop-color="#47A9F4" offset="74.15%"/>
            <stop stop-color="#4BA1E3" offset="100%"/>
        </linearGradient>
    </defs>
    <path d="M6.666 3.133a1.996 1.996 0 0 1 2.572 1.13l.864 2.162a2 2 0 0 1-.993 2.546l-1.792.858a.447.447 0 0 0-.22.568c.739 1.834 1.746 3.313 3.021 4.443a16.653 16.653 0 0 0 4.176 2.712c.22.1.479.006.583-.213l.84-1.756a2 2 0 0 1 2.547-.994l2.049.82a1.997 1.997 0 0 1 1.07 2.704l-.127.259c-1.031 2.035-2.524 3.148-4.45 3.276-3.842.257-6.692-.781-9.836-3.927-3.266-3.267-4.2-5.717-3.925-9.84.152-2.282 1.38-3.887 3.621-4.748z" fill="url(#awm1raw9ra)" fill-rule="evenodd" opacity=".4"/>
</svg>
