<svg width="24" height="24" viewBox="0 0 24 24" xmlns="http://www.w3.org/2000/svg">
    <defs>
        <linearGradient x1="74.463%" y1="89.145%" x2="18.837%" y2="0%" id="diyp5r0lca">
            <stop stop-color="#1289E3" offset="0%"/>
            <stop stop-color="#47A9F4" offset="74.15%"/>
            <stop stop-color="#4BA1E3" offset="100%"/>
        </linearGradient>
    </defs>
    <path d="M14.586 3a1 1 0 0 1 .707.293l4.414 4.414a1 1 0 0 1 .293.707V19a3 3 0 0 1-3 3H8a3 3 0 0 1-3-3V6a3 3 0 0 1 3-3h6.586zm-.44 1.854a.5.5 0 0 0-.146.353V8.5a.5.5 0 0 0 .5.5h3.293a.5.5 0 0 0 .353-.854l-3.292-3.292a.5.5 0 0 0-.708 0z" fill="url(#diyp5r0lca)" fill-rule="evenodd" opacity=".4"/>
</svg>
