<svg width="24" height="24" viewBox="0 0 24 24" xmlns="http://www.w3.org/2000/svg">
    <defs>
        <linearGradient x1="89.25%" y1="78.283%" x2="0%" y2="13.875%" id="3zyvpshnoa">
            <stop stop-color="#1289E3" offset="0%"/>
            <stop stop-color="#47A9F4" offset="74.15%"/>
            <stop stop-color="#4BA1E3" offset="100%"/>
        </linearGradient>
    </defs>
    <path d="M5 18a3 3 0 0 1-3-3V7a3 3 0 0 1 3-3h14a3 3 0 0 1 3 3v8a3 3 0 0 1-3 3h-5.5a.5.5 0 1 0 0 1H15a1 1 0 0 1 0 2H9a1 1 0 0 1 0-2h1.5a.5.5 0 1 0 0-1H5z" fill="url(#3zyvpshnoa)" fill-rule="evenodd"/>
</svg>
