<svg width="24" height="24" viewBox="0 0 24 24" xmlns="http://www.w3.org/2000/svg">
    <path d="m12.765 7.578 3.712 3.61a.25.25 0 0 1 0 .353l-7.246 7.247a1.25 1.25 0 0 1-.801.363l-3.413.227a.25.25 0 0 1-.262-.2l.223-3.479c.02-.302.15-.586.363-.8l7.247-7.247a.25.25 0 0 1 .177-.074zm2.828-2.828 3.713 3.609a.25.25 0 0 1 0 .353l-.707.707a.25.25 0 0 1-.354 0L14.71 5.884a.25.25 0 0 1 0-.354l.707-.707a.25.25 0 0 1 .176-.073z" fill="#CCEDFA" stroke="#0094DE" stroke-width="1.5" fill-rule="evenodd"/>
</svg>
