<svg width="24" height="24" viewBox="0 0 24 24" xmlns="http://www.w3.org/2000/svg">
    <defs>
        <linearGradient x1="89.25%" y1="68.2%" x2="0%" y2="26.753%" id="6tvfeqce4a">
            <stop stop-color="#1289E3" offset="0%"/>
            <stop stop-color="#47A9F4" offset="74.15%"/>
            <stop stop-color="#4BA1E3" offset="100%"/>
        </linearGradient>
    </defs>
    <path d="M16.573 11c-1.93 0-3.5-1.57-3.5-3.5s1.57-3.5 3.5-3.5 3.5 1.57 3.5 3.5-1.57 3.5-3.5 3.5m-.073 1c1.127 0 2.16.05 3.1.151a3.808 3.808 0 0 1 3.4 3.787V17a2 2 0 0 1-2 2h-6.765c.476-.53.765-1.231.765-2v-1.063c0-1.51-.7-2.872-1.808-3.757a3.6 3.6 0 0 1 .209-.029c.94-.1 1.972-.151 3.099-.151zM3 19a2 2 0 0 1-2-2v-1.063a3.808 3.808 0 0 1 3.4-3.786c.94-.1 1.973-.151 3.1-.151s2.16.05 3.1.151a3.798 3.798 0 0 1 1.626.566l.04.027a3.732 3.732 0 0 1 .973.91 3.224 3.224 0 0 1 .166.239 4.021 4.021 0 0 1 .281.53l.008.018A3.793 3.793 0 0 1 14 15.937V17l-.005.15L14 17a2.011 2.011 0 0 1-.374 1.165 2.007 2.007 0 0 1-1.477.83L12 19H3zm4.573-8c-1.93 0-3.5-1.57-3.5-3.5S5.643 4 7.573 4s3.5 1.57 3.5 3.5-1.57 3.5-3.5 3.5" fill="url(#6tvfeqce4a)" fill-rule="evenodd"/>
</svg>
