<svg width="24" height="24" viewBox="0 0 24 24" xmlns="http://www.w3.org/2000/svg">
    <defs>
        <linearGradient x1="64.13%" y1="89.145%" x2="32%" y2="0%" id="g2kyguu60a">
            <stop stop-color="#1289E3" offset="0%"/>
            <stop stop-color="#47A9F4" offset="74.15%"/>
            <stop stop-color="#4BA1E3" offset="100%"/>
        </linearGradient>
    </defs>
    <path d="M18 8V5a3 3 0 0 0-3-3H9a3 3 0 0 0-3 3v3a2 2 0 0 0 .8 1.6l2.667 2a.5.5 0 0 1 0 .8l-2.667 2A2 2 0 0 0 6 16v3a3 3 0 0 0 3 3h6a3 3 0 0 0 3-3v-3a2 2 0 0 0-.8-1.6l-2.667-2a.5.5 0 0 1 0-.8l2.667-2A2 2 0 0 0 18 8z" fill="url(#g2kyguu60a)" fill-rule="evenodd" opacity=".4"/>
</svg>
