<svg width="24" height="24" viewBox="0 0 24 24" xmlns="http://www.w3.org/2000/svg">
    <defs>
        <linearGradient x1="84.768%" y1="89.145%" x2="5.709%" y2="0%" id="9dpbkz7pza">
            <stop stop-color="#1289E3" offset="0%"/>
            <stop stop-color="#47A9F4" offset="74.15%"/>
            <stop stop-color="#4BA1E3" offset="100%"/>
        </linearGradient>
    </defs>
    <path d="M12.073 12c-2.206 0-4-1.795-4-4s1.794-4 4-4c2.205 0 4 1.795 4 4s-1.795 4-4 4M4 19v-1.5a4.317 4.317 0 0 1 3.835-4.29C9.083 13.07 10.47 13 12 13s2.917.07 4.165.21A4.317 4.317 0 0 1 20 17.5V19a2 2 0 0 1-2 2H6a2 2 0 0 1-2-2z" fill="url(#9dpbkz7pza)" fill-rule="evenodd"/>
</svg>
