<svg width="24" height="24" viewBox="0 0 24 24" xmlns="http://www.w3.org/2000/svg">
    <defs>
        <linearGradient x1="84.557%" y1="89.145%" x2="5.978%" y2="0%" id="ime4s1olfa">
            <stop stop-color="#1289E3" offset="0%"/>
            <stop stop-color="#47A9F4" offset="74.15%"/>
            <stop stop-color="#4BA1E3" offset="100%"/>
        </linearGradient>
    </defs>
    <path d="M11 3c3.86 0 7 3.14 7 7a6.97 6.97 0 0 1-1.725 4.597c.281.055.55.192.768.41l3.182 3.182a1 1 0 0 1 0 1.415l-.707.707a.995.995 0 0 1-.53.277l-.118.014h-.118a.996.996 0 0 1-.648-.291l-3.182-3.182a1.495 1.495 0 0 1-.44-1.06A6.939 6.939 0 0 1 11 17c-3.86 0-7-3.14-7-7s3.14-7 7-7z" fill="url(#ime4s1olfa)" fill-rule="evenodd"/>
</svg>
